<svg width="35" height="35" viewBox="0 0 35 35" fill="none" xmlns="http://www.w3.org/2000/svg">
<g clip-path="url(#clip0_113_32009)">
<g clip-path="url(#clip1_113_32009)">
<path d="M25.6495 4.58026H10.9927V0H25.6495C30.7087 0 34.81 4.10131 34.81 9.16053V23.8174H30.2298V9.16053C30.2298 6.63094 28.1791 4.58026 25.6495 4.58026Z" fill="black" fill-opacity="0.8"/>
<path d="M9.16053 30.2298H23.8174V34.81H9.16053C4.10131 34.81 -4.42291e-07 30.7087 0 25.6495L9.46392e-07 10.9927H4.58026V25.6495C4.58026 28.1791 6.63094 30.2298 9.16053 30.2298Z" fill="black" fill-opacity="0.8"/>
<path fill-rule="evenodd" clip-rule="evenodd" d="M26.5654 17.4052C26.5654 22.4644 22.4641 26.5657 17.4049 26.5657C12.3457 26.5657 8.24438 22.4644 8.24438 17.4052C8.24438 12.3459 12.3457 8.24463 17.4049 8.24463C22.4641 8.24463 26.5654 12.3459 26.5654 17.4052ZM21.9852 17.4052C21.9852 19.9348 19.9345 21.9854 17.4049 21.9854C14.8753 21.9854 12.8246 19.9348 12.8246 17.4052C12.8246 14.8756 14.8753 12.8249 17.4049 12.8249C19.9345 12.8249 21.9852 14.8756 21.9852 17.4052Z" fill="black" fill-opacity="0.8"/>
</g>
</g>
<defs>
<clipPath id="clip0_113_32009">
<rect width="34.81" height="34.81" fill="white"/>
</clipPath>
<clipPath id="clip1_113_32009">
<rect width="34.81" height="34.81" fill="white"/>
</clipPath>
</defs>
</svg>
