<svg width="35" height="38" viewBox="0 0 35 38" fill="none" xmlns="http://www.w3.org/2000/svg">
<g clip-path="url(#clip0_113_31994)">
<g clip-path="url(#clip1_113_31994)">
<path fill-rule="evenodd" clip-rule="evenodd" d="M28.0444 6.54372H12.6199V0H34.5881V21.9682H28.0444V6.54372Z" fill="black" fill-opacity="0.8"/>
<path fill-rule="evenodd" clip-rule="evenodd" d="M15.9958 19.5648C14.9966 18.8972 13.8218 18.5408 12.62 18.5408V11.9971C15.116 11.9971 17.556 12.7372 19.6313 14.1239C21.7067 15.5106 23.3242 17.4816 24.2794 19.7876C25.2346 22.0936 25.4845 24.6311 24.9975 27.0791C24.5106 29.5272 23.3087 31.7759 21.5437 33.5408C19.7788 35.3057 17.5301 36.5077 15.0821 36.9946C12.634 37.4816 10.0965 37.2316 7.79052 36.2764C5.48452 35.3213 3.51355 33.7037 2.12685 31.6284C0.740143 29.553 -4.75469e-06 27.1131 0 24.617L6.54372 24.6171C6.54372 25.8188 6.90009 26.9936 7.56777 27.9929C8.23541 28.9921 9.18441 29.7709 10.2947 30.2308C11.405 30.6908 12.6267 30.8111 13.8055 30.5766C14.9841 30.3422 16.0668 29.7635 16.9166 28.9137C17.7664 28.0639 18.3451 26.9812 18.5796 25.8025C18.814 24.6238 18.6937 23.4021 18.2338 22.2918C17.7739 21.1815 16.9951 20.2325 15.9958 19.5648Z" fill="black" fill-opacity="0.8"/>
</g>
</g>
<defs>
<clipPath id="clip0_113_31994">
<rect width="34.81" height="37.43" fill="white"/>
</clipPath>
<clipPath id="clip1_113_31994">
<rect width="34.81" height="37.4301" fill="white"/>
</clipPath>
</defs>
</svg>
