<svg width="35" height="41" viewBox="0 0 35 41" fill="none" xmlns="http://www.w3.org/2000/svg">
<g clip-path="url(#clip0_113_32001)">
<g clip-path="url(#clip1_113_32001)">
<g clip-path="url(#clip2_113_32001)">
<path fill-rule="evenodd" clip-rule="evenodd" d="M19.7171 0.847956C20.8451 -0.280048 22.6739 -0.280048 23.8019 0.847956L34.3651 11.4111L23.7539 21.54C22.6 22.6415 20.7716 22.599 19.6701 21.4451C18.5687 20.2912 18.6112 18.4628 19.7651 17.3614L23.023 14.2515H15.9826C10.3462 14.2515 5.77686 18.8208 5.77686 24.4573C5.77686 30.0938 10.3462 34.6631 15.9826 34.6631H30.2322C31.8274 34.6631 33.1206 35.9563 33.1206 37.5515C33.1206 39.1468 31.8274 40.4399 30.2322 40.4399H15.9826C7.15568 40.4399 0 33.2843 0 24.4573C0 15.6303 7.15568 8.47465 15.9826 8.47465H23.2589L19.7171 4.93281C18.5891 3.80481 18.5891 1.97595 19.7171 0.847956Z" fill="black" fill-opacity="0.8"/>
</g>
</g>
</g>
<defs>
<clipPath id="clip0_113_32001">
<rect width="34.81" height="40.52" fill="white"/>
</clipPath>
<clipPath id="clip1_113_32001">
<rect width="34.81" height="40.52" fill="white"/>
</clipPath>
<clipPath id="clip2_113_32001">
<rect width="34.81" height="40.5166" fill="white" transform="translate(0 0.00195312)"/>
</clipPath>
</defs>
</svg>
