<svg width="35" height="36" viewBox="0 0 35 36" fill="none" xmlns="http://www.w3.org/2000/svg">
<g clip-path="url(#clip0_113_31985)">
<g clip-path="url(#clip1_113_31985)">
<path d="M4.26011 10.445C5.53212 14.5234 9.86953 16.7985 13.948 15.5265C18.0265 14.2545 27.6863 7.61395 26.4143 3.53549C25.1423 -0.542989 13.4202 -0.514948 9.34171 0.757048C5.26323 2.02904 2.98812 6.36646 4.26011 10.445Z" fill="black" fill-opacity="0.8"/>
<path d="M1.79539 32.809C4.18926 35.2028 8.07003 35.2028 10.4639 32.809C12.8577 30.4151 17.1918 22.1999 14.7984 19.806C12.4045 17.4123 4.18926 21.7466 1.79539 24.1402C-0.598464 26.5341 -0.598464 30.4151 1.79539 32.809Z" fill="black" fill-opacity="0.8"/>
<path d="M24.7014 35.1625C28.8281 36.2682 33.0698 33.8193 34.1757 29.6926C35.2812 25.5659 34.8346 13.8524 30.7079 12.7465C26.5812 11.6409 20.3376 21.5617 19.2318 25.6884C18.1259 29.815 20.5747 34.0567 24.7014 35.1625Z" fill="black" fill-opacity="0.8"/>
</g>
</g>
<defs>
<clipPath id="clip0_113_31985">
<rect width="34.81" height="35.67" fill="white"/>
</clipPath>
<clipPath id="clip1_113_31985">
<rect width="34.81" height="35.6695" fill="white" transform="translate(0 0.000488281)"/>
</clipPath>
</defs>
</svg>
