<svg xmlns="http://www.w3.org/2000/svg" viewBox="0 0 1600 1000">
    <defs>
      <linearGradient id="bg" x1="0" x2="1" y1="0" y2="1"><stop stop-color="#111417"/><stop offset="1" stop-color="#1B1F20"/></linearGradient>
      <radialGradient id="glow" cx="75%" cy="20%" r="70%"><stop stop-color="#E64A2E" stop-opacity=".32"/><stop offset=".46" stop-color="#69D254" stop-opacity=".13"/><stop offset="1" stop-color="#111417" stop-opacity="0"/></radialGradient>
      <filter id="soft"><feGaussianBlur stdDeviation="18"/></filter>
      <style>text{font-family:Inter,Arial,sans-serif} .small{font-size:28px;fill:#B4B6B6;letter-spacing:.08em} .label{font-size:34px;font-weight:700;fill:#F5F5F1} .micro{font-size:23px;fill:#B4B6B6} .card{fill:#F5F5F1;fill-opacity:.08;stroke:#F5F5F1;stroke-opacity:.16;stroke-width:2}</style>
    </defs><rect width="1600" height="1000" fill="url(#bg)"/><rect width="1600" height="1000" fill="url(#glow)"/><circle cx="1280" cy="160" r="250" fill="#E64A2E" opacity=".10" filter="url(#soft)"/><circle cx="1270" cy="760" r="300" fill="#69D254" opacity=".08" filter="url(#soft)"/><g transform="translate(140 150)"><rect width="1320" height="650" rx="50" fill="#F5F5F1" fill-opacity=".08" stroke="#F5F5F1" stroke-opacity=".18"/><rect x="60" y="65" width="360" height="210" rx="30" fill="#69D254" fill-opacity=".12"/><rect x="460" y="65" width="360" height="210" rx="30" fill="#E64A2E" fill-opacity=".12"/><rect x="860" y="65" width="360" height="210" rx="30" fill="#F5F5F1" fill-opacity=".09"/><g transform="translate(70 360)"><path d="M0 190 C120 120 190 170 310 96 S520 120 700 45 S900 65 1110 20" fill="none" stroke="#69D254" stroke-width="10" stroke-linecap="round"/><path d="M0 130 C130 160 240 80 360 118 S580 55 720 92 S940 88 1110 54" fill="none" stroke="#E64A2E" stroke-width="6" stroke-linecap="round" opacity=".75"/></g><g fill="#F5F5F1" opacity=".25"><rect x="60" y="590" width="54" height="40" rx="10"/><rect x="160" y="590" width="54" height="72" rx="10"/><rect x="260" y="590" width="54" height="104" rx="10"/><rect x="360" y="590" width="54" height="136" rx="10"/><rect x="460" y="590" width="54" height="168" rx="10"/><rect x="560" y="590" width="54" height="40" rx="10"/><rect x="660" y="590" width="54" height="72" rx="10"/><rect x="760" y="590" width="54" height="104" rx="10"/><rect x="860" y="590" width="54" height="136" rx="10"/><rect x="960" y="590" width="54" height="168" rx="10"/><rect x="1060" y="590" width="54" height="40" rx="10"/><rect x="1160" y="590" width="54" height="72" rx="10"/></g></g><text x="90" y="880" class="small">Monitoreo con IA y criterio experto</text><text x="90" y="925" class="micro">Señales, presupuesto, términos y conversiones bajo revisión</text></svg>