<svg xmlns="http://www.w3.org/2000/svg" viewBox="0 0 1600 1000">
    <defs>
      <linearGradient id="bg" x1="0" x2="1" y1="0" y2="1"><stop stop-color="#111417"/><stop offset="1" stop-color="#1B1F20"/></linearGradient>
      <radialGradient id="glow" cx="75%" cy="20%" r="70%"><stop stop-color="#E64A2E" stop-opacity=".32"/><stop offset=".46" stop-color="#69D254" stop-opacity=".13"/><stop offset="1" stop-color="#111417" stop-opacity="0"/></radialGradient>
      <filter id="soft"><feGaussianBlur stdDeviation="18"/></filter>
      <style>text{font-family:Inter,Arial,sans-serif} .small{font-size:28px;fill:#B4B6B6;letter-spacing:.08em} .label{font-size:34px;font-weight:700;fill:#F5F5F1} .micro{font-size:23px;fill:#B4B6B6} .card{fill:#F5F5F1;fill-opacity:.08;stroke:#F5F5F1;stroke-opacity:.16;stroke-width:2}</style>
    </defs><rect width="1600" height="1000" fill="url(#bg)"/><rect width="1600" height="1000" fill="url(#glow)"/><circle cx="1280" cy="160" r="250" fill="#E64A2E" opacity=".10" filter="url(#soft)"/><circle cx="1270" cy="760" r="300" fill="#69D254" opacity=".08" filter="url(#soft)"/><g transform="translate(130 150)"><circle cx="660" cy="360" r="250" fill="#F5F5F1" fill-opacity=".06" stroke="#F5F5F1" stroke-opacity=".15"/><rect x="40" y="80" width="300" height="110" rx="28" class="card"/><text x="190" y="146" text-anchor="middle" class="label" style="font-size:28px">Conectividad</text><path d="M190 190 C 520 380, 760 360, 790 360" fill="none" stroke="#69D254" stroke-opacity=".42" stroke-width="4"/><rect x="900" y="80" width="300" height="110" rx="28" class="card"/><text x="1050" y="146" text-anchor="middle" class="label" style="font-size:28px">Ciberseguridad</text><path d="M1050 190 C 520 380, 760 360, 790 360" fill="none" stroke="#69D254" stroke-opacity=".42" stroke-width="4"/><rect x="80" y="520" width="300" height="110" rx="28" class="card"/><text x="230" y="586" text-anchor="middle" class="label" style="font-size:28px">Cloud</text><path d="M230 630 C 520 380, 760 360, 790 360" fill="none" stroke="#69D254" stroke-opacity=".42" stroke-width="4"/><rect x="910" y="520" width="300" height="110" rx="28" class="card"/><text x="1060" y="586" text-anchor="middle" class="label" style="font-size:28px">Backup</text><path d="M1060 630 C 520 380, 760 360, 790 360" fill="none" stroke="#69D254" stroke-opacity=".42" stroke-width="4"/><rect x="520" y="30" width="300" height="110" rx="28" class="card"/><text x="670" y="96" text-anchor="middle" class="label" style="font-size:28px">Microsoft 365</text><path d="M670 140 C 520 380, 760 360, 790 360" fill="none" stroke="#69D254" stroke-opacity=".42" stroke-width="4"/><rect x="530" y="660" width="300" height="110" rx="28" class="card"/><text x="680" y="726" text-anchor="middle" class="label" style="font-size:28px">Starlink</text><path d="M680 770 C 520 380, 760 360, 790 360" fill="none" stroke="#69D254" stroke-opacity=".42" stroke-width="4"/><circle cx="660" cy="360" r="72" fill="#69D254" opacity=".9"/><circle cx="660" cy="360" r="24" fill="#111417" opacity=".9"/></g><text x="90" y="880" class="small">Visibilidad en búsquedas con IA</text><text x="90" y="925" class="micro">Contenido listo para ser entendido, comparado y recomendado</text></svg>