<svg xmlns="http://www.w3.org/2000/svg" viewBox="0 0 1600 1000">
    <defs>
      <linearGradient id="bg" x1="0" x2="1" y1="0" y2="1"><stop stop-color="#111417"/><stop offset="1" stop-color="#1B1F20"/></linearGradient>
      <radialGradient id="glow" cx="75%" cy="20%" r="70%"><stop stop-color="#E64A2E" stop-opacity=".32"/><stop offset=".46" stop-color="#69D254" stop-opacity=".13"/><stop offset="1" stop-color="#111417" stop-opacity="0"/></radialGradient>
      <filter id="soft"><feGaussianBlur stdDeviation="18"/></filter>
      <style>text{font-family:Inter,Arial,sans-serif} .small{font-size:28px;fill:#B4B6B6;letter-spacing:.08em} .label{font-size:34px;font-weight:700;fill:#F5F5F1} .micro{font-size:23px;fill:#B4B6B6} .card{fill:#F5F5F1;fill-opacity:.08;stroke:#F5F5F1;stroke-opacity:.16;stroke-width:2}</style>
    </defs><rect width="1600" height="1000" fill="url(#bg)"/><rect width="1600" height="1000" fill="url(#glow)"/><circle cx="1280" cy="160" r="250" fill="#E64A2E" opacity=".10" filter="url(#soft)"/><circle cx="1270" cy="760" r="300" fill="#69D254" opacity=".08" filter="url(#soft)"/><g opacity=".38"><path d="M0 230 C 360 110, 620 360, 960 230 S 1320 150, 1600 250" fill="none" stroke="#F5F5F1" stroke-opacity=".12" stroke-width="2"/><path d="M0 350 C 360 230, 620 480, 960 350 S 1320 270, 1600 370" fill="none" stroke="#F5F5F1" stroke-opacity=".12" stroke-width="2"/><path d="M0 470 C 360 350, 620 600, 960 470 S 1320 390, 1600 490" fill="none" stroke="#F5F5F1" stroke-opacity=".12" stroke-width="2"/><path d="M0 590 C 360 470, 620 720, 960 590 S 1320 510, 1600 610" fill="none" stroke="#F5F5F1" stroke-opacity=".12" stroke-width="2"/><path d="M0 710 C 360 590, 620 840, 960 710 S 1320 630, 1600 730" fill="none" stroke="#F5F5F1" stroke-opacity=".12" stroke-width="2"/><path d="M0 830 C 360 710, 620 960, 960 830 S 1320 750, 1600 850" fill="none" stroke="#F5F5F1" stroke-opacity=".12" stroke-width="2"/></g>
        <g transform="translate(160 180)"><rect width="620" height="460" rx="42" fill="#F5F5F1" fill-opacity=".08" stroke="#F5F5F1" stroke-opacity=".18"/>
          <rect x="44" y="52" width="190" height="18" rx="9" fill="#E64A2E" opacity=".9"/><rect x="44" y="102" width="520" height="42" rx="21" fill="#F5F5F1" opacity=".16"/>
          <rect x="44" y="178" width="235" height="155" rx="24" fill="#69D254" opacity=".16"/><rect x="310" y="178" width="235" height="155" rx="24" fill="#E64A2E" opacity=".15"/>
          <path d="M80 384 C 170 330, 245 390, 330 340 S 470 300, 535 250" fill="none" stroke="#69D254" stroke-width="8" stroke-linecap="round"/>
        </g>
        <g transform="translate(920 250)"><circle cx="210" cy="210" r="198" fill="#F5F5F1" fill-opacity=".06" stroke="#F5F5F1" stroke-opacity=".16"/><circle cx="210" cy="210" r="106" fill="#E64A2E" opacity=".20"/><circle cx="210" cy="210" r="32" fill="#69D254"/><path d="M210 18v384M18 210h384M66 66l288 288M354 66L66 354" stroke="#F5F5F1" stroke-opacity=".18" stroke-width="2"/></g><text x="90" y="880" class="small">GTD Colombia · adquisición digital</text><text x="90" y="925" class="micro">Campañas, landings y aprendizaje conectado</text></svg>