<svg xmlns="http://www.w3.org/2000/svg" viewBox="0 0 1600 1000">
    <defs>
      <linearGradient id="bg" x1="0" x2="1" y1="0" y2="1"><stop stop-color="#111417"/><stop offset="1" stop-color="#1B1F20"/></linearGradient>
      <radialGradient id="glow" cx="75%" cy="20%" r="70%"><stop stop-color="#E64A2E" stop-opacity=".32"/><stop offset=".46" stop-color="#69D254" stop-opacity=".13"/><stop offset="1" stop-color="#111417" stop-opacity="0"/></radialGradient>
      <filter id="soft"><feGaussianBlur stdDeviation="18"/></filter>
      <style>text{font-family:Inter,Arial,sans-serif} .small{font-size:28px;fill:#B4B6B6;letter-spacing:.08em} .label{font-size:34px;font-weight:700;fill:#F5F5F1} .micro{font-size:23px;fill:#B4B6B6} .card{fill:#F5F5F1;fill-opacity:.08;stroke:#F5F5F1;stroke-opacity:.16;stroke-width:2}</style>
    </defs><rect width="1600" height="1000" fill="url(#bg)"/><rect width="1600" height="1000" fill="url(#glow)"/><circle cx="1280" cy="160" r="250" fill="#E64A2E" opacity=".10" filter="url(#soft)"/><circle cx="1270" cy="760" r="300" fill="#69D254" opacity=".08" filter="url(#soft)"/><g transform="translate(120 210)"><rect x="0" y="0" width="390" height="520" rx="42" fill="#F5F5F1" fill-opacity="0.07" stroke="#F5F5F1" stroke-opacity=".45"/><text x="56" y="92" class="small">PAQUETE</text><text x="56" y="150" class="label">Starter</text><text x="56" y="285" fill="#F5F5F1" font-size="150" font-weight="800">2</text><text x="185" y="240" class="micro">campañas</text><text x="185" y="290" class="micro">landings</text><path d="M56 360 H 330" stroke="#F5F5F1" stroke-width="6" stroke-linecap="round"/><circle cx="80" cy="430" r="18" fill="#F5F5F1"/><circle cx="150" cy="430" r="18" fill="#F5F5F1" opacity=".7"/><circle cx="220" cy="430" r="18" fill="#F5F5F1" opacity=".45"/><rect x="455" y="0" width="390" height="520" rx="42" fill="#69D254" fill-opacity="0.1" stroke="#69D254" stroke-opacity=".45"/><text x="511" y="92" class="small">PAQUETE</text><text x="511" y="150" class="label">Growth</text><text x="511" y="285" fill="#69D254" font-size="150" font-weight="800">4</text><text x="640" y="240" class="micro">campañas</text><text x="640" y="290" class="micro">landings</text><path d="M511 360 H 785" stroke="#69D254" stroke-width="6" stroke-linecap="round"/><circle cx="535" cy="430" r="18" fill="#69D254"/><circle cx="605" cy="430" r="18" fill="#69D254" opacity=".7"/><circle cx="675" cy="430" r="18" fill="#69D254" opacity=".45"/><rect x="910" y="0" width="390" height="520" rx="42" fill="#E64A2E" fill-opacity="0.1" stroke="#E64A2E" stroke-opacity=".45"/><text x="966" y="92" class="small">PAQUETE</text><text x="966" y="150" class="label">AI Search</text><text x="966" y="285" fill="#E64A2E" font-size="150" font-weight="800">6</text><text x="1095" y="240" class="micro">campañas</text><text x="1095" y="290" class="micro">landings</text><path d="M966 360 H 1240" stroke="#E64A2E" stroke-width="6" stroke-linecap="round"/><circle cx="990" cy="430" r="18" fill="#E64A2E"/><circle cx="1060" cy="430" r="18" fill="#E64A2E" opacity=".7"/><circle cx="1130" cy="430" r="18" fill="#E64A2E" opacity=".45"/></g><text x="90" y="880" class="small">Paquetes por capacidad operativa</text><text x="90" y="925" class="micro">2, 4 o 6 campañas con landing dedicada</text></svg>