<svg xmlns="http://www.w3.org/2000/svg" viewBox="0 0 1600 1000">
    <defs>
      <linearGradient id="bg" x1="0" x2="1" y1="0" y2="1"><stop stop-color="#111417"/><stop offset="1" stop-color="#1B1F20"/></linearGradient>
      <radialGradient id="glow" cx="75%" cy="20%" r="70%"><stop stop-color="#E64A2E" stop-opacity=".32"/><stop offset=".46" stop-color="#69D254" stop-opacity=".13"/><stop offset="1" stop-color="#111417" stop-opacity="0"/></radialGradient>
      <filter id="soft"><feGaussianBlur stdDeviation="18"/></filter>
      <style>text{font-family:Inter,Arial,sans-serif} .small{font-size:28px;fill:#B4B6B6;letter-spacing:.08em} .label{font-size:34px;font-weight:700;fill:#F5F5F1} .micro{font-size:23px;fill:#B4B6B6} .card{fill:#F5F5F1;fill-opacity:.08;stroke:#F5F5F1;stroke-opacity:.16;stroke-width:2}</style>
    </defs><rect width="1600" height="1000" fill="url(#bg)"/><rect width="1600" height="1000" fill="url(#glow)"/><circle cx="1280" cy="160" r="250" fill="#E64A2E" opacity=".10" filter="url(#soft)"/><circle cx="1270" cy="760" r="300" fill="#69D254" opacity=".08" filter="url(#soft)"/><g transform="translate(130 260)"><rect x="0" y="0" width="220" height="150" rx="30" class="card"/><text x="110" y="82" text-anchor="middle" class="label">Intención</text><path d="M230 75 H 270" stroke="#69D254" stroke-width="8" stroke-linecap="round"/><path d="M258 57 L280 75 L258 93" fill="none" stroke="#69D254" stroke-width="8" stroke-linecap="round" stroke-linejoin="round"/><rect x="285" y="0" width="220" height="150" rx="30" class="card"/><text x="395" y="82" text-anchor="middle" class="label">Campaña</text><path d="M515 75 H 555" stroke="#69D254" stroke-width="8" stroke-linecap="round"/><path d="M543 57 L565 75 L543 93" fill="none" stroke="#69D254" stroke-width="8" stroke-linecap="round" stroke-linejoin="round"/><rect x="570" y="0" width="220" height="150" rx="30" class="card"/><text x="680" y="82" text-anchor="middle" class="label">Landing</text><path d="M800 75 H 840" stroke="#69D254" stroke-width="8" stroke-linecap="round"/><path d="M828 57 L850 75 L828 93" fill="none" stroke="#69D254" stroke-width="8" stroke-linecap="round" stroke-linejoin="round"/><rect x="855" y="0" width="220" height="150" rx="30" class="card"/><text x="965" y="82" text-anchor="middle" class="label">Lead</text><path d="M1085 75 H 1125" stroke="#69D254" stroke-width="8" stroke-linecap="round"/><path d="M1113 57 L1135 75 L1113 93" fill="none" stroke="#69D254" stroke-width="8" stroke-linecap="round" stroke-linejoin="round"/><rect x="1140" y="0" width="220" height="150" rx="30" class="card"/><text x="1250" y="82" text-anchor="middle" class="label">Seguimiento</text></g><g transform="translate(230 520)"><rect width="1140" height="210" rx="36" fill="#F5F5F1" fill-opacity=".06"/><path d="M70 150 C220 50 350 180 500 100 S780 50 1040 115" fill="none" stroke="#E64A2E" stroke-width="7"/><path d="M70 165 C260 140 390 120 560 90 S850 70 1040 45" fill="none" stroke="#69D254" stroke-width="7"/></g><text x="90" y="880" class="small">Del clic al seguimiento comercial</text><text x="90" y="925" class="micro">Cada servicio con campaña y página propia</text></svg>